<?xml version="1.0" encoding="utf-8"?>
<!-- Generator: Adobe Illustrator 24.2.3, SVG Export Plug-In . SVG Version: 6.00 Build 0)  -->
<svg version="1.1" id="Layer_1" xmlns="http://www.w3.org/2000/svg" xmlns:xlink="http://www.w3.org/1999/xlink" x="0px" y="0px"
	 viewBox="0 0 48 49" style="enable-background:new 0 0 48 49;" xml:space="preserve">
<style type="text/css">
	.st0{fill-rule:evenodd;clip-rule:evenodd;fill:#FFFFFF;}
</style>
<path class="st0" d="M11.3,11.1c-0.2,0-0.3,0.1-0.5,0.2c-0.1,0.1-0.2,0.3-0.2,0.5v19.6c0,0.2,0.1,0.3,0.2,0.5
	c0.1,0.1,0.3,0.2,0.5,0.2h3.9c0.7,0,1.3,0.6,1.3,1.3v3.3l5.7-4.3c0.2-0.2,0.5-0.3,0.8-0.3h13.7c0.2,0,0.3-0.1,0.5-0.2
	c0.1-0.1,0.2-0.3,0.2-0.5V11.8c0-0.2-0.1-0.3-0.2-0.5c-0.1-0.1-0.3-0.2-0.5-0.2H11.3z M9,9.5c0.6-0.6,1.4-1,2.3-1h25.5
	c0.9,0,1.7,0.3,2.3,1c0.6,0.6,1,1.4,1,2.3v19.6c0,0.9-0.3,1.7-1,2.3c-0.6,0.6-1.4,1-2.3,1H23.5L16,40.2c-0.4,0.3-0.9,0.3-1.4,0.1
	c-0.4-0.2-0.7-0.7-0.7-1.2v-4.6h-2.6c-0.9,0-1.7-0.3-2.3-1c-0.6-0.6-1-1.4-1-2.3V11.8C8,10.9,8.3,10.1,9,9.5z"/>
</svg>
