<svg width="301" height="124" viewBox="0 0 301 124" fill="none" xmlns="http://www.w3.org/2000/svg"><g clip-path="url(#a)"><g filter="url(#b)"><circle cx="246.208" cy="68.633" r="44.608" transform="rotate(15 246.208 68.633)" fill="#fff"/><path fill-rule="evenodd" clip-rule="evenodd" d="m251.025 91.162-5.788-5.784 23.781-6.362a16.013 16.013 0 0 0 2.644-.966c1.656 4.53.574 9.621-2.92 13.115a12.584 12.584 0 0 1-12.115 3.235 12.53 12.53 0 0 1-5.602-3.238Zm-2.415 2.412a15.914 15.914 0 0 0 2.159 1.81c-3.097 3.695-8.049 5.3-12.828 4.02-6.671-1.788-10.647-8.667-8.861-15.333l6.368-23.764 8.835 8.831-3.996 14.913a1.706 1.706 0 0 0 .442 1.648l7.881 7.875Zm-24.316-7.84a12.576 12.576 0 0 1-8.87-8.855 12.433 12.433 0 0 1 1.251-9.498 12.43 12.43 0 0 1 7.606-5.832l7.903-2.115-6.366 23.759a16.06 16.06 0 0 0-.489 2.773 12.706 12.706 0 0 1-1.035-.232Zm34.504-22.229-12.062 3.228-10.929-10.919a1.714 1.714 0 0 0-1.649-.442l-10.762 2.88c-.911.242-1.796.563-2.646.964-1.655-4.53-.571-9.62 2.921-13.115a12.583 12.583 0 0 1 12.114-3.237 12.542 12.542 0 0 1 5.602 3.24l17.411 17.401Zm-4.364-25.655c6.674 1.789 10.647 8.667 8.86 15.335l-2.117 7.9-17.408-17.397a15.897 15.897 0 0 0-2.161-1.813c3.097-3.697 8.051-5.304 12.826-4.025Zm22.554 22.54c1.787 6.668-2.185 13.545-8.857 15.329l-23.778 6.363 3.231-12.057 14.922-3.993a1.707 1.707 0 0 0 1.209-1.207l2.881-10.754c.245-.908.405-1.836.488-2.769a12.576 12.576 0 0 1 9.904 9.088Z" fill="#000" fill-opacity=".5"/><path fill-rule="evenodd" clip-rule="evenodd" d="m251.025 91.162-5.788-5.784 23.781-6.362a16.013 16.013 0 0 0 2.644-.966c1.656 4.53.574 9.621-2.92 13.115a12.584 12.584 0 0 1-12.115 3.235 12.53 12.53 0 0 1-5.602-3.238Zm-2.415 2.412a15.914 15.914 0 0 0 2.159 1.81c-3.097 3.695-8.049 5.3-12.828 4.02-6.671-1.788-10.647-8.667-8.861-15.333l6.368-23.764 8.835 8.831-3.996 14.913a1.706 1.706 0 0 0 .442 1.648l7.881 7.875Zm-24.316-7.84a12.576 12.576 0 0 1-8.87-8.855 12.433 12.433 0 0 1 1.251-9.498 12.43 12.43 0 0 1 7.606-5.832l7.903-2.115-6.366 23.759a16.06 16.06 0 0 0-.489 2.773 12.706 12.706 0 0 1-1.035-.232Zm34.504-22.229-12.062 3.228-10.929-10.919a1.714 1.714 0 0 0-1.649-.442l-10.762 2.88c-.911.242-1.796.563-2.646.964-1.655-4.53-.571-9.62 2.921-13.115a12.583 12.583 0 0 1 12.114-3.237 12.542 12.542 0 0 1 5.602 3.24l17.411 17.401Zm-4.364-25.655c6.674 1.789 10.647 8.667 8.86 15.335l-2.117 7.9-17.408-17.397a15.897 15.897 0 0 0-2.161-1.813c3.097-3.697 8.051-5.304 12.826-4.025Zm22.554 22.54c1.787 6.668-2.185 13.545-8.857 15.329l-23.778 6.363 3.231-12.057 14.922-3.993a1.707 1.707 0 0 0 1.209-1.207l2.881-10.754c.245-.908.405-1.836.488-2.769a12.576 12.576 0 0 1 9.904 9.088Z" fill="url(#c)"/></g><g filter="url(#d)"><path d="M28.948 101.805 11.077 32.002a4.386 4.386 0 0 1 3.056-5.308L73.18 9.998a4.386 4.386 0 0 1 5.48 3.293l16.596 76.686a4.386 4.386 0 0 1-3.552 5.251l-57.774 9.813a4.386 4.386 0 0 1-4.983-3.236Z" fill="#FF4785"/><path d="m9.456 32.417 17.872 69.803a6.058 6.058 0 0 0 6.883 4.47l57.774-9.813a6.059 6.059 0 0 0 4.907-7.255L80.296 12.938a6.059 6.059 0 0 0-7.57-4.549L13.677 25.085a6.059 6.059 0 0 0-4.22 7.333Z" stroke="#fff" stroke-width="3.346"/></g><path fill-rule="evenodd" clip-rule="evenodd" d="m68.54 11.31-8.128 2.299 1.69 9.749a.655.655 0 0 0 1.141.314l3.137-3.66 3.71 1.812a.654.654 0 0 0 .922-.749l-2.473-9.764Zm.589 33.745c-1.255 1.498-12.315 4.728-12.676 3.06-1.14-6.415-4.05-6.077-5.632-5.734-1.504.325-3.938 1.328-3.2 4.737.752 3.474 4.877 4.634 9.72 5.996 6.878 1.935 15.203 4.276 17.358 14.236 2.066 9.545-4.549 16.497-14.441 18.638-10.21 2.21-20.025.01-22.116-14.529.031-1.767 13.097-4.176 13.374-2.894 1.121 5.943 2.843 7.39 6.246 6.654 2.611-.566 3.487-2.262 2.962-4.686-.794-3.67-5.118-5-10.093-6.53-6.737-2.073-14.665-4.512-16.636-13.62-1.967-9.09 2.973-16.504 14.132-18.919 11.159-2.415 18.544 2.234 21.002 13.591Z" fill="#fff"/><g filter="url(#e)"><path d="m136.092 83.306 8.256-71.58a4.386 4.386 0 0 1 4.751-3.866l61.116 5.51a4.386 4.386 0 0 1 3.941 5.034l-11.907 77.552a4.385 4.385 0 0 1-5.194 3.636L139.59 88.109a4.387 4.387 0 0 1-3.498-4.803Z" fill="#FF4785"/><path d="m142.686 11.534-8.255 71.58a6.057 6.057 0 0 0 4.831 6.635l57.465 11.483a6.059 6.059 0 0 0 7.176-5.022l11.906-77.552a6.06 6.06 0 0 0-5.444-6.954l-61.116-5.51a6.06 6.06 0 0 0-6.563 5.34Z" stroke="#fff" stroke-width="3.346"/></g><path fill-rule="evenodd" clip-rule="evenodd" d="m205.41 12.938-8.411-.759-1.906 9.71a.653.653 0 0 0 .953.7l4.238-2.296 2.818 3.018a.654.654 0 0 0 1.128-.37l1.18-10.003Zm-11.509 31.726c-1.707.951-13.192.015-12.933-1.672 1.229-6.398-1.609-7.123-3.21-7.368-1.521-.234-4.152-.168-4.682 3.28-.539 3.513 2.899 6.072 6.935 9.074 5.733 4.265 12.671 9.428 11.125 19.5-1.482 9.653-10.144 13.781-20.149 12.245-10.324-1.585-18.705-7.147-15.463-21.473.661-1.639 13.725.78 13.526 2.077-1.078 5.951.013 7.918 3.455 8.446 2.641.406 4.065-.866 4.441-3.317.57-3.71-2.994-6.499-7.093-9.706-5.551-4.343-12.084-9.455-10.67-18.665 1.412-9.194 8.675-14.352 19.96-12.62 11.285 1.733 16.521 8.714 14.758 20.2Z" fill="#fff"/><g filter="url(#f)"><path d="M142.873 75.32c-2.504 7.104-5.96 14.516-12.39 19.008-6.839 4.776-15.605 5.347-26.504 2.038-8.824-2.678-13.734-9.494-16.335-14.897A40.732 40.732 0 0 1 85 74.263a36.61 36.61 0 0 1-.533-2.31 25.72 25.72 0 0 1-.126-.693l-.013-.082-5.104-16.955a9.337 9.337 0 0 1 .48-6.627c.954-2.029 2.837-3.99 5.641-4.667 1.304-.359 3.113-.471 5.116.417 1.925.855 3.446 2.385 4.713 4.164.59.823 1.153 1.689 1.68 2.535l8.149-26.845a8.79 8.79 0 0 1 7.812-6.219 8.786 8.786 0 0 1 3.477.464c5.159 1.782 6.571 7.232 5.39 11.123l-2.273 7.485a8.796 8.796 0 0 1 3.08.547l.046.017.045.018c2.804 1.092 4.576 3.38 5.256 5.942a8.803 8.803 0 0 1 4.422.35c3.653 1.266 5.479 4.467 5.74 7.648a8.785 8.785 0 0 1 3.788.516l.046.018.046.018c4.689 1.826 6.427 6.932 5.162 11.1-.265.873-.532 1.774-.806 2.694v.002c-.994 3.345-2.065 6.948-3.361 10.396Z" fill="#fff"/><path fill-rule="evenodd" clip-rule="evenodd" d="M141.484 60.343c.013-.053.025-.106.035-.158l.003-.01c.311-1.563-.446-3.073-1.771-3.589a2.928 2.928 0 0 0-3.822 1.901l-2.4 7.906c-.425 1.401-2.033 2.26-3.435 1.835a2.812 2.812 0 0 1-1.835-3.435l3.778-12.447c.029-.094.053-.189.073-.283.329-1.54-.416-3.13-1.772-3.6a2.93 2.93 0 0 0-3.766 1.918l-2.808 9.251a2.567 2.567 0 0 1-.214.5c-.612 1.097-1.996 1.707-3.221 1.335a2.814 2.814 0 0 1-1.836-3.435l3.659-12.054c.016-.05.03-.1.042-.15.012-.045.022-.09.032-.134l.002-.01c.323-1.533-.437-3.068-1.775-3.59a2.927 2.927 0 0 0-3.822 1.902l-3.744 12.334c-.426 1.402-2.034 2.261-3.435 1.836a2.87 2.87 0 0 1-1.835-3.435l8.458-27.865c.029-.094.053-.19.074-.284.334-1.538-.364-3.114-1.773-3.6a2.93 2.93 0 0 0-3.766 1.919L99.07 62.913c-.425 1.402-2.033 2.261-3.434 1.836a2.813 2.813 0 0 1-1.835-3.435c.056-.188.117-.375.176-.56.094-.292.187-.58.267-.869.173-.627.281-1.248.19-1.87a3.808 3.808 0 0 0-.522-1.505c-.287-.47-.568-.942-.85-1.414-.814-1.364-1.628-2.73-2.552-4.035l-.016-.022-.089-.125-.036-.051c-1.866-2.597-3.074-2.421-3.548-2.261-1.696.342-2.477 2.31-1.988 3.927l5.274 17.522-.017.056-.084-.026-.236.071.32-.045s2.36 16.636 15.591 20.653c19.847 6.025 26.781-3.505 31.687-17.446 1.224-3.25 2.222-6.605 3.213-9.942.283-.951.565-1.9.852-2.846a3.11 3.11 0 0 0 .051-.183Zm1.389 14.976c-2.504 7.105-5.96 14.517-12.39 19.009-6.839 4.776-15.605 5.347-26.504 2.038-8.824-2.678-13.734-9.494-16.335-14.897A40.732 40.732 0 0 1 85 74.263a36.61 36.61 0 0 1-.533-2.31 25.72 25.72 0 0 1-.126-.693l-.013-.082-5.104-16.955a9.337 9.337 0 0 1 .48-6.627c.954-2.029 2.837-3.99 5.641-4.667 1.304-.359 3.113-.471 5.116.417 1.925.855 3.446 2.385 4.713 4.164.59.823 1.153 1.689 1.68 2.535l8.149-26.845a8.79 8.79 0 0 1 7.812-6.219 8.786 8.786 0 0 1 3.477.464c5.159 1.782 6.571 7.232 5.39 11.123l-2.273 7.485a8.796 8.796 0 0 1 3.08.547l.046.017.045.018c2.804 1.092 4.576 3.38 5.256 5.942a8.803 8.803 0 0 1 4.422.35c3.653 1.266 5.479 4.467 5.74 7.648a8.785 8.785 0 0 1 3.788.516l.046.018.046.018c4.689 1.826 6.427 6.932 5.162 11.1-.265.874-.533 1.775-.806 2.696-.994 3.345-2.065 6.948-3.361 10.396Z" fill="#333"/></g></g><defs><filter id="b" x="188.23" y="11.77" width="115.958" height="115.957" filterUnits="userSpaceOnUse" color-interpolation-filters="sRGB"><feFlood flood-opacity="0" result="BackgroundImageFix"/><feColorMatrix in="SourceAlpha" values="0 0 0 0 0 0 0 0 0 0 0 0 0 0 0 0 0 0 127 0" result="hardAlpha"/><feOffset dy="1.115"/><feGaussianBlur stdDeviation="1.673"/><feColorMatrix values="0 0 0 0 0 0 0 0 0 0 0 0 0 0 0 0 0 0 0.05 0"/><feBlend in2="BackgroundImageFix" result="effect1_dropShadow_293_13161"/><feBlend in="SourceGraphic" in2="effect1_dropShadow_293_13161" result="shape"/></filter><filter id="d" x="2.714" y="3.233" width="100.868" height="111.722" filterUnits="userSpaceOnUse" color-interpolation-filters="sRGB"><feFlood flood-opacity="0" result="BackgroundImageFix"/><feColorMatrix in="SourceAlpha" values="0 0 0 0 0 0 0 0 0 0 0 0 0 0 0 0 0 0 127 0" result="hardAlpha"/><feOffset dy="1.626"/><feGaussianBlur stdDeviation="2.439"/><feColorMatrix values="0 0 0 0 0 0 0 0 0 0 0 0 0 0 0 0 0 0 0.05 0"/><feBlend in2="BackgroundImageFix" result="effect1_dropShadow_293_13161"/><feBlend in="SourceGraphic" in2="effect1_dropShadow_293_13161" result="shape"/></filter><filter id="e" x="127.838" y="1.244" width="94.594" height="108.285" filterUnits="userSpaceOnUse" color-interpolation-filters="sRGB"><feFlood flood-opacity="0" result="BackgroundImageFix"/><feColorMatrix in="SourceAlpha" values="0 0 0 0 0 0 0 0 0 0 0 0 0 0 0 0 0 0 127 0" result="hardAlpha"/><feOffset dy="1.626"/><feGaussianBlur stdDeviation="2.439"/><feColorMatrix values="0 0 0 0 0 0 0 0 0 0 0 0 0 0 0 0 0 0 0.05 0"/><feBlend in2="BackgroundImageFix" result="effect1_dropShadow_293_13161"/><feBlend in="SourceGraphic" in2="effect1_dropShadow_293_13161" result="shape"/></filter><filter id="f" x="44.608" y="-10.267" width="135.774" height="135.775" filterUnits="userSpaceOnUse" color-interpolation-filters="sRGB"><feFlood flood-opacity="0" result="BackgroundImageFix"/><feColorMatrix in="SourceAlpha" values="0 0 0 0 0 0 0 0 0 0 0 0 0 0 0 0 0 0 127 0" result="hardAlpha"/><feOffset dy="1.115"/><feGaussianBlur stdDeviation="1.115"/><feColorMatrix values="0 0 0 0 0 0 0 0 0 0 0 0 0 0 0 0 0 0 0.1 0"/><feBlend in2="BackgroundImageFix" result="effect1_dropShadow_293_13161"/><feColorMatrix in="SourceAlpha" values="0 0 0 0 0 0 0 0 0 0 0 0 0 0 0 0 0 0 127 0" result="hardAlpha"/><feOffset/><feGaussianBlur stdDeviation="8.364"/><feColorMatrix values="0 0 0 0 0 0 0 0 0 0 0 0 0 0 0 0 0 0 0.05 0"/><feBlend in2="effect1_dropShadow_293_13161" result="effect2_dropShadow_293_13161"/><feBlend in="SourceGraphic" in2="effect2_dropShadow_293_13161" result="shape"/></filter><linearGradient id="c" x1="233" y1="37" x2="256" y2="107" gradientUnits="userSpaceOnUse"><stop stop-color="#FF5C00"/><stop offset=".276" stop-color="#51FE00"/><stop offset=".615" stop-color="#0097EC"/><stop offset="1" stop-color="#DD1FFC"/></linearGradient><clipPath id="a"><path fill="#fff" d="M0 0h301v124H0z"/></clipPath></defs></svg>