<svg width="1013" height="178" viewBox="0 0 1013 178" fill="none" xmlns="http://www.w3.org/2000/svg">
<g clip-path="url(#clip0)">
<g clip-path="url(#clip1)">
<path d="M210.34 112C210.34 114.77 210.42 117.35 210.6 119.77C210.78 122.19 210.86 124.38 210.86 126.37H201.28C201.28 124.73 201.28 123.09 201.15 121.45C201.02 119.81 201.02 118.13 201.02 116.45H200.76C200.01 118.012 199.029 119.451 197.85 120.72C196.542 122.152 195.041 123.394 193.39 124.41C189.539 126.776 185.1 128.01 180.58 127.97C177.064 128.054 173.566 127.439 170.29 126.16C167.539 125.052 165.082 123.324 163.11 121.11C161.148 118.842 159.71 116.168 158.9 113.28C157.967 110.03 157.509 106.661 157.54 103.28V65.82H167.63V102.18C167.63 107.267 168.753 111.267 171 114.18C173.247 117.093 176.74 118.56 181.48 118.58C184.396 118.653 187.292 118.08 189.96 116.9C192.276 115.825 194.279 114.176 195.78 112.11C197.358 109.888 198.501 107.387 199.15 104.74C199.91 101.648 200.28 98.4736 200.25 95.29V65.82H210.34V112Z" fill="#231F20"/>
<path d="M225.87 80.18C225.87 77.42 225.783 74.8333 225.61 72.42C225.43 70 225.35 67.8 225.35 65.82H234.93C234.93 67.46 234.93 69.1 235.05 70.73C235.17 72.36 235.18 74.06 235.18 75.73H235.44C236.195 74.1712 237.175 72.7324 238.35 71.46C239.662 70.0293 241.167 68.7875 242.82 67.77C244.637 66.6532 246.594 65.7823 248.64 65.18C250.913 64.5099 253.271 64.1731 255.64 64.18C259.157 64.099 262.654 64.7177 265.93 66C268.674 67.095 271.131 68.8057 273.11 71C275.087 73.3215 276.522 76.0544 277.31 79C278.234 82.2521 278.688 85.6194 278.66 89V126.4H268.57V90C268.57 84.9133 267.45 80.9133 265.21 78C262.97 75.0867 259.473 73.62 254.72 73.6C251.807 73.5254 248.914 74.0992 246.25 75.28C243.932 76.3568 241.926 78.0051 240.42 80.07C238.839 82.2931 237.699 84.7982 237.06 87.45C236.3 90.5382 235.93 93.7097 235.96 96.89V126.4H225.87V80.18Z" fill="#231F20"/>
<path d="M299.37 74.36H286.17V65.82H299.37V52.23C299.328 48.8168 299.664 45.4095 300.37 42.07C300.974 39.1805 302.188 36.4531 303.93 34.07C305.672 31.7853 307.968 29.982 310.6 28.83C315.176 27.0362 320.158 26.5346 325 27.38C326.262 27.5723 327.484 27.9674 328.62 28.55L327.2 37.61C325.004 36.7878 322.684 36.3481 320.34 36.31C318.227 36.2004 316.125 36.6707 314.26 37.67C312.808 38.5598 311.658 39.8667 310.96 41.42C310.179 43.244 309.741 45.1969 309.67 47.18C309.54 49.43 309.47 51.84 309.47 54.43V65.82H324.23V74.36H309.46V126.36H299.37V74.36Z" fill="#231F20"/>
<path d="M327.84 96.1C327.78 91.665 328.616 87.2635 330.3 83.16C331.854 79.4135 334.138 76.014 337.02 73.16C339.951 70.3082 343.431 68.083 347.25 66.62C355.597 63.5136 364.783 63.5136 373.13 66.62C376.944 68.0854 380.421 70.3104 383.35 73.16C386.235 76.0136 388.523 79.413 390.08 83.16C393.36 91.4748 393.36 100.725 390.08 109.04C388.52 112.786 386.233 116.185 383.35 119.04C380.423 121.89 376.946 124.112 373.13 125.57C364.783 128.676 355.597 128.676 347.25 125.57C343.426 124.124 339.938 121.912 337 119.07C334.12 116.214 331.836 112.815 330.28 109.07C328.6 104.956 327.77 100.544 327.84 96.1ZM338.71 96.1C338.679 99.1173 339.18 102.116 340.19 104.96C341.132 107.601 342.605 110.021 344.52 112.069C346.434 114.118 348.749 115.752 351.32 116.87C357.002 119.19 363.368 119.19 369.05 116.87C371.62 115.76 373.934 114.134 375.849 112.092C377.764 110.05 379.238 107.636 380.18 105C382.166 99.2569 382.166 93.0131 380.18 87.27C379.24 84.629 377.767 82.2096 375.853 80.1624C373.938 78.1152 371.622 76.4839 369.05 75.37C363.37 73.0368 357 73.0368 351.32 75.37C348.75 76.4879 346.437 78.1206 344.523 80.1673C342.608 82.214 341.134 84.6313 340.19 87.27C339.185 90.1044 338.684 93.0928 338.71 96.1Z" fill="#231F20"/>
<path d="M405.48 28.55H415.57V126.38H405.48V28.55Z" fill="#231F20"/>
<path d="M482.34 115.64H482.09C479.953 119.324 476.838 122.346 473.09 124.37C468.727 126.812 463.789 128.041 458.79 127.93C454.702 127.956 450.651 127.143 446.89 125.54C443.256 123.996 439.976 121.726 437.25 118.87C434.481 115.953 432.304 112.526 430.84 108.78C427.734 100.612 427.734 91.5879 430.84 83.42C432.31 79.6601 434.509 76.2277 437.31 73.32C440.143 70.4276 443.549 68.1592 447.31 66.66C451.445 65.0202 455.862 64.2049 460.31 64.26C464.512 64.2149 468.666 65.1532 472.44 67C476.153 68.8481 479.439 71.4502 482.09 74.64H482.34V28.55H492.44V126.38H482.34V115.64ZM482.34 96.1C482.371 93.0794 481.87 90.077 480.86 87.23C479.916 84.5913 478.442 82.174 476.527 80.1273C474.613 78.0806 472.3 76.4479 469.73 75.33C464.05 72.9968 457.68 72.9968 452 75.33C449.428 76.4439 447.112 78.0752 445.197 80.1224C443.283 82.1697 441.81 84.589 440.87 87.23C438.884 92.9731 438.884 99.2169 440.87 104.96C441.807 107.603 443.279 110.025 445.194 112.074C447.109 114.124 449.426 115.756 452 116.87C457.682 119.19 464.048 119.19 469.73 116.87C472.297 115.756 474.61 114.129 476.524 112.087C478.438 110.046 479.914 107.634 480.86 105C481.874 102.144 482.375 99.1307 482.34 96.1Z" fill="#231F20"/>
<path d="M506.15 42.14C506.146 41.1838 506.333 40.2365 506.701 39.3538C507.068 38.4711 507.609 37.6708 508.29 37C508.973 36.3034 509.789 35.75 510.688 35.3722C511.588 34.9944 512.554 34.7998 513.53 34.7998C514.506 34.7998 515.472 34.9944 516.372 35.3722C517.271 35.75 518.087 36.3034 518.77 37C519.656 37.8601 520.314 38.9272 520.685 40.1052C521.056 41.2832 521.128 42.5349 520.894 43.7475C520.66 44.9601 520.128 46.0955 519.346 47.0511C518.564 48.0068 517.556 48.7527 516.413 49.2216C515.271 49.6906 514.03 49.8677 512.802 49.7372C511.574 49.6066 510.398 49.1724 509.379 48.4738C508.361 47.7751 507.533 46.834 506.969 45.7352C506.405 44.6365 506.124 43.4147 506.15 42.18V42.14ZM508.48 65.82H518.58V126.38H508.48V65.82Z" fill="#231F20"/>
<path d="M535 80.18C535 77.42 534.913 74.8333 534.74 72.42C534.567 70.0067 534.48 67.8067 534.48 65.82H544.06C544.06 67.46 544.06 69.1 544.19 70.73C544.32 72.36 544.32 74.06 544.32 75.73H544.57C545.325 74.1689 546.309 72.7296 547.49 71.46C548.817 70.0429 550.335 68.8178 552 67.82C555.85 65.4507 560.29 64.2166 564.81 64.26C568.327 64.179 571.824 64.7977 575.1 66.08C577.845 67.175 580.301 68.8857 582.28 71.08C584.236 73.381 585.66 76.0853 586.45 79C587.377 82.2516 587.835 85.6189 587.81 89V126.4H577.71V90C577.71 84.9133 576.59 80.9133 574.35 78C572.11 75.0867 568.617 73.62 563.87 73.6C560.954 73.5252 558.057 74.099 555.39 75.28C553.075 76.3571 551.072 78.0055 549.57 80.07C547.986 82.2926 546.842 84.7976 546.2 87.45C545.44 90.5382 545.07 93.7097 545.1 96.89V126.4H535V80.18Z" fill="#231F20"/>
<path d="M663.77 123.66C663.77 134.7 660.943 143.09 655.29 148.83C649.637 154.57 641.463 157.44 630.77 157.44C625.291 157.516 619.84 156.639 614.66 154.85C609.518 152.89 604.859 149.844 601 145.92L608.25 137.64C611.128 140.85 614.572 143.504 618.41 145.47C622.27 147.295 626.501 148.202 630.77 148.12C634.599 148.245 638.412 147.564 641.96 146.12C644.716 144.933 647.125 143.064 648.96 140.69C650.707 138.364 651.944 135.696 652.59 132.86C653.277 129.846 653.613 126.762 653.59 123.67V115.9H653.33C651.099 119.619 647.813 122.591 643.89 124.44C640.169 126.211 636.101 127.137 631.98 127.15C627.547 127.19 623.145 126.404 619 124.83C615.196 123.377 611.721 121.177 608.78 118.36C605.915 115.578 603.667 112.226 602.18 108.52C600.599 104.572 599.808 100.352 599.85 96.1C599.786 91.55 600.577 87.0285 602.18 82.77C603.61 79.0047 605.838 75.5933 608.71 72.77C611.619 69.9878 615.081 67.8482 618.87 66.49C623.105 64.9816 627.575 64.2367 632.07 64.29C634.161 64.2924 636.244 64.5339 638.28 65.01C640.365 65.4873 642.381 66.2265 644.28 67.21C646.206 68.1886 647.972 69.4529 649.52 70.96C651.085 72.4878 652.395 74.257 653.4 76.2H653.66V65.82H663.76L663.77 123.66ZM610.71 96.1C610.68 99.051 611.252 101.977 612.39 104.7C613.46 107.265 615.023 109.596 616.99 111.56C618.94 113.511 621.245 115.073 623.78 116.16C626.395 117.285 629.214 117.857 632.06 117.84C635.218 117.9 638.351 117.283 641.25 116.03C643.793 114.909 646.08 113.28 647.971 111.245C649.863 109.209 651.319 106.808 652.25 104.19C653.206 101.511 653.687 98.6848 653.67 95.84C653.712 92.7701 653.187 89.7189 652.12 86.84C651.142 84.2154 649.645 81.8144 647.72 79.78C645.787 77.7785 643.448 76.2135 640.86 75.19C638.059 74.086 635.071 73.5359 632.06 73.57C629.059 73.53 626.084 74.1264 623.33 75.32C620.774 76.4234 618.48 78.0559 616.6 80.11C614.714 82.182 613.241 84.5952 612.26 87.22C611.207 90.0608 610.681 93.0703 610.71 96.1Z" fill="#231F20"/>
<path d="M669.2 34.76H687.06L704.27 100.76H704.53L725.1 34.76H741.1L761.29 100.76H761.55L779.55 34.76H796.12L769.46 126.38H754L732.74 56.63H732.48L711.26 126.38H696.26L669.2 34.76Z" fill="#06B0F2"/>
<path d="M791.23 95.32C791.164 90.7202 792.067 86.158 793.88 81.93C795.543 78.0277 797.992 74.5102 801.075 71.5972C804.159 68.6842 807.81 66.4384 811.8 65C820.326 61.8937 829.674 61.8937 838.2 65C842.187 66.4359 845.836 68.6762 848.92 71.5818C852.005 74.4873 854.459 77.9961 856.13 81.89C859.664 90.4669 859.664 100.093 856.13 108.67C854.46 112.566 852.013 116.081 848.94 119C845.84 121.899 842.187 124.144 838.2 125.6C829.674 128.706 820.326 128.706 811.8 125.6C807.813 124.144 804.16 121.899 801.06 119C797.994 116.092 795.551 112.591 793.88 108.71C792.067 104.482 791.164 99.9198 791.23 95.32ZM806.76 95.32C806.753 97.7077 807.169 100.078 807.99 102.32C808.778 104.544 810.01 106.586 811.61 108.32C813.327 110.152 815.402 111.612 817.706 112.61C820.01 113.609 822.494 114.124 825.005 114.124C827.516 114.124 830 113.609 832.304 112.61C834.608 111.612 836.683 110.152 838.4 108.32C839.997 106.583 841.228 104.542 842.02 102.32C843.665 97.7982 843.665 92.8418 842.02 88.32C841.225 86.0986 839.995 84.0586 838.4 82.32C836.769 80.5773 834.812 79.1709 832.64 78.18C830.224 77.1571 827.628 76.6301 825.005 76.6301C822.382 76.6301 819.785 77.1571 817.37 78.18C815.197 79.1684 813.239 80.5752 811.61 82.32C810.012 84.056 808.78 86.0968 807.99 88.32C807.171 90.5626 806.754 92.9324 806.76 95.32Z" fill="#06B0F2"/>
<path d="M869.65 64.26H885.17V74.1H885.43C887.018 70.6375 889.583 67.7145 892.81 65.69C896.116 63.6623 899.932 62.6214 903.81 62.69C904.743 62.69 905.673 62.7771 906.59 62.95C907.5 63.12 908.42 63.34 909.37 63.6V78.6C908.083 78.2533 906.813 77.9733 905.56 77.76C904.342 77.5437 903.107 77.4333 901.87 77.43C898.829 77.2855 895.806 77.9772 893.13 79.43C891.153 80.5828 889.447 82.1484 888.13 84.02C887.035 85.5852 886.245 87.3424 885.8 89.2C885.474 90.4703 885.276 91.7702 885.21 93.08V126.34H869.65V64.26Z" fill="#06B0F2"/>
<path d="M963.21 117.06H963C960.923 120.701 957.753 123.598 953.94 125.34C950.079 127.082 945.886 127.966 941.65 127.93C937.227 128.013 932.836 127.154 928.77 125.41C925.109 123.797 921.826 121.436 919.13 118.48C916.396 115.489 914.31 111.965 913 108.13C911.593 104.007 910.894 99.6761 910.93 95.32C910.893 90.9529 911.638 86.6146 913.13 82.51C914.497 78.6995 916.581 75.1862 919.27 72.16C921.923 69.2132 925.162 66.8528 928.78 65.23C932.624 63.5185 936.793 62.6588 941 62.71C943.616 62.6701 946.225 62.976 948.76 63.62C950.847 64.1504 952.862 64.9328 954.76 65.95C956.333 66.7837 957.809 67.7899 959.16 68.95C960.263 69.9043 961.268 70.9663 962.16 72.12H962.55V28.55H978V126.38H963.21V117.06ZM926.45 95.32C926.443 97.7077 926.859 100.078 927.68 102.32C928.472 104.545 929.707 106.586 931.31 108.32C933.015 110.157 935.09 111.613 937.398 112.592C939.705 113.571 942.194 114.051 944.7 114C947.208 114.051 949.698 113.569 952.006 112.586C954.315 111.604 956.388 110.143 958.09 108.3C959.693 106.566 960.928 104.525 961.72 102.3C963.365 97.7782 963.365 92.8218 961.72 88.3C960.926 86.0763 959.691 84.0356 958.09 82.3C956.389 80.4565 954.316 78.9958 952.007 78.0148C949.699 77.0338 947.208 76.5549 944.7 76.61C942.193 76.5575 939.703 77.0375 937.395 78.0183C935.086 78.9992 933.013 80.4585 931.31 82.3C929.709 84.0356 928.474 86.0763 927.68 88.3C926.858 90.5489 926.442 92.9257 926.45 95.32Z" fill="#06B0F2"/>
<path d="M31.76 22.92V144.73C31.76 144.73 82.42 145.94 113.17 121.81V0C82.42 24.12 31.76 22.92 31.76 22.92Z" fill="url(#paint0_linear)"/>
<path d="M81.41 55.48V177.29C81.41 177.29 30.76 178.5 0 154.38V32.56C30.76 56.69 81.41 55.48 81.41 55.48Z" fill="#06B0F2"/>
<path fill-rule="evenodd" clip-rule="evenodd" d="M995.96 106.41C990.498 106.41 986.07 110.838 986.07 116.3C986.07 121.762 990.498 126.19 995.96 126.19C1001.42 126.19 1005.85 121.762 1005.85 116.3C1005.85 110.838 1001.42 106.41 995.96 106.41ZM984.07 116.3C984.07 109.733 989.393 104.41 995.96 104.41C1002.53 104.41 1007.85 109.733 1007.85 116.3C1007.85 122.867 1002.53 128.19 995.96 128.19C989.393 128.19 984.07 122.867 984.07 116.3Z" fill="#30ADE3"/>
<path d="M993.468 113.536H990.896V120.668H989.847V113.536H987.281V112.668H993.468V113.536Z" fill="#30ADE3"/>
<path d="M996.017 112.668L998.633 119.195L1001.25 112.668H1002.62V120.668H1001.56V117.552L1001.66 114.19L999.034 120.668H998.226L995.605 114.206L995.71 117.552V120.668H994.655V112.668H996.017Z" fill="#30ADE3"/>
</g>
</g>
<defs>
<linearGradient id="paint0_linear" x1="15.93" y1="128.9" x2="129" y2="15.83" gradientUnits="userSpaceOnUse">
<stop stop-color="#004162"/>
<stop offset="0.15" stop-color="#094D6F"/>
<stop offset="0.44" stop-color="#206C93"/>
<stop offset="0.83" stop-color="#469FCC"/>
<stop offset="1" stop-color="#57B6E6"/>
</linearGradient>
<clipPath id="clip0">
<rect width="1012.42" height="177.3" fill="white" transform="translate(0 0.299988)"/>
</clipPath>
<clipPath id="clip1">
<rect width="1007.85" height="177.3" fill="white"/>
</clipPath>
</defs>
</svg>
