<svg id="svg" version="1.1" xmlns="http://www.w3.org/2000/svg" xmlns:xlink="http://www.w3.org/1999/xlink" width="400" height="70.04739336492891" viewBox="0, 0, 400,70.04739336492891"><g id="svgg"><path id="path0" d="M124.067 10.914 C 121.874 11.391,120.191 12.692,119.210 14.667 C 118.414 16.270,118.167 18.030,118.167 22.090 L 118.167 25.833 115.583 25.833 L 113.000 25.833 113.000 27.667 L 113.000 29.500 115.583 29.500 L 118.167 29.500 118.167 39.750 L 118.167 50.000 120.250 50.000 L 122.333 50.000 122.333 39.750 L 122.333 29.500 125.250 29.500 L 128.167 29.500 128.167 27.667 L 128.167 25.833 125.228 25.833 L 122.290 25.833 122.373 21.792 C 122.469 17.135,122.604 16.489,123.694 15.462 C 124.727 14.489,127.258 14.176,128.709 14.843 C 128.962 14.959,129.210 15.012,129.261 14.961 C 129.406 14.816,129.869 11.500,129.778 11.263 C 129.567 10.714,125.990 10.496,124.067 10.914 M160.000 30.583 L 160.000 50.000 162.083 50.000 L 164.167 50.000 164.167 30.583 L 164.167 11.167 162.083 11.167 L 160.000 11.167 160.000 30.583 M190.333 20.191 L 190.333 29.215 189.458 28.391 C 186.254 25.374,181.399 24.465,177.112 26.079 C 175.152 26.816,173.995 27.570,172.667 28.973 C 171.280 30.438,171.275 30.445,170.654 31.695 C 170.366 32.275,170.063 32.881,169.980 33.042 C 168.849 35.240,168.951 40.629,170.175 43.290 C 170.354 43.678,170.500 44.042,170.500 44.097 C 170.500 44.423,172.200 46.645,173.092 47.483 C 177.900 52.006,186.281 51.595,189.922 46.659 L 190.333 46.102 190.333 48.051 L 190.333 50.000 192.417 50.000 L 194.500 50.000 194.500 30.583 L 194.500 11.167 192.417 11.167 L 190.333 11.167 190.333 20.191 M201.767 13.840 C 199.715 14.454,199.144 17.662,200.844 19.030 C 201.943 19.915,204.180 19.824,205.018 18.860 C 207.136 16.424,204.862 12.914,201.767 13.840 M98.667 25.583 C 96.742 25.970,94.787 27.207,93.560 28.815 L 93.000 29.548 93.000 28.464 C 93.000 27.868,92.952 27.032,92.894 26.607 L 92.788 25.833 90.791 25.833 L 88.794 25.833 88.907 26.292 C 88.969 26.544,89.062 31.981,89.114 38.375 L 89.209 50.000 91.271 50.000 L 93.333 50.000 93.333 43.155 C 93.333 34.726,93.614 33.193,95.528 31.167 C 97.760 28.804,102.446 28.507,104.345 30.609 C 105.913 32.346,106.000 32.957,106.000 42.205 L 106.000 50.000 108.083 50.000 L 110.167 50.000 110.167 41.756 C 110.167 31.093,110.001 30.201,107.567 27.767 C 106.444 26.643,106.364 26.587,105.206 26.100 C 103.405 25.342,100.862 25.141,98.667 25.583 M140.333 25.429 C 138.302 25.793,137.895 25.879,137.750 25.981 C 137.658 26.045,137.284 26.199,136.918 26.324 C 130.999 28.342,127.825 36.111,130.209 42.750 C 132.756 49.844,142.010 52.869,149.089 48.922 C 150.365 48.210,152.734 45.957,153.219 44.994 C 153.379 44.676,153.579 44.304,153.663 44.167 C 155.550 41.106,155.602 35.713,153.779 32.014 C 153.248 30.934,151.592 28.667,151.336 28.667 C 151.278 28.667,151.009 28.454,150.740 28.194 C 148.706 26.234,143.527 24.858,140.333 25.429 M221.016 25.522 C 220.085 25.676,218.251 26.412,217.863 26.787 C 217.742 26.904,217.583 27.000,217.509 27.000 C 217.333 27.000,216.009 28.292,215.585 28.876 C 215.065 29.594,215.000 29.449,215.000 27.583 L 215.000 25.833 212.974 25.833 L 210.949 25.833 211.058 27.860 C 211.118 28.974,211.167 34.411,211.167 39.943 L 211.167 50.000 213.250 50.000 L 215.333 50.000 215.333 43.625 C 215.333 34.429,215.859 32.327,218.682 30.243 C 220.745 28.720,224.882 28.916,226.448 30.611 C 227.975 32.264,228.167 33.620,228.167 42.772 L 228.167 50.000 230.264 50.000 L 232.362 50.000 232.286 41.375 C 232.203 31.861,232.198 31.811,231.041 29.507 C 229.467 26.374,225.466 24.783,221.016 25.522 M246.744 25.563 C 245.075 25.837,242.862 26.667,241.917 27.375 C 234.628 32.830,235.182 44.639,242.917 48.717 C 247.825 51.305,253.594 50.781,256.897 47.448 L 258.044 46.291 257.957 49.104 C 257.838 53.005,257.244 54.674,255.398 56.302 C 254.357 57.221,254.358 57.220,253.667 57.492 C 253.346 57.619,253.008 57.778,252.917 57.846 C 252.318 58.289,248.375 58.489,246.648 58.164 C 244.787 57.814,243.221 56.953,241.425 55.292 C 240.068 54.037,240.390 53.940,238.506 56.167 C 238.001 56.762,237.531 57.275,237.461 57.306 C 237.133 57.448,237.415 57.970,238.107 58.500 C 238.525 58.821,238.954 59.158,239.059 59.250 C 239.266 59.431,240.332 60.131,241.000 60.526 C 244.425 62.550,251.617 62.861,255.500 61.154 C 259.125 59.560,261.295 56.610,261.989 52.328 C 262.100 51.644,262.165 46.608,262.165 38.542 L 262.167 25.833 260.083 25.833 L 258.000 25.833 257.999 27.792 L 257.999 29.750 257.530 29.044 C 255.639 26.194,251.345 24.809,246.744 25.563 M62.167 34.244 C 62.167 43.478,62.245 44.350,63.255 46.344 C 66.031 51.821,75.330 52.147,78.901 46.892 L 79.333 46.256 79.333 48.128 L 79.333 50.000 81.359 50.000 L 83.386 50.000 83.277 47.375 C 83.217 45.931,83.168 40.494,83.167 35.292 L 83.167 25.833 81.083 25.833 L 79.000 25.833 79.000 31.923 C 79.000 39.721,78.664 42.409,77.507 43.884 C 74.727 47.425,69.274 47.801,67.360 44.583 C 66.356 42.895,66.333 42.658,66.333 33.849 L 66.333 25.833 64.250 25.833 L 62.167 25.833 62.167 34.244 M200.667 37.917 L 200.667 50.000 202.750 50.000 L 204.833 50.000 204.833 37.917 L 204.833 25.833 202.750 25.833 L 200.667 25.833 200.667 37.917 M144.257 29.420 C 150.289 30.957,152.668 38.574,148.719 43.707 C 148.308 44.241,147.773 44.804,147.528 44.960 C 147.283 45.115,147.044 45.296,146.996 45.363 C 146.300 46.315,142.333 46.979,140.191 46.503 C 133.087 44.922,131.528 34.395,137.811 30.431 C 139.658 29.265,142.128 28.877,144.257 29.420 M184.917 29.703 C 186.722 30.390,187.827 31.243,188.861 32.750 C 190.737 35.483,190.834 39.914,189.084 42.900 C 186.015 48.138,177.179 47.841,174.686 42.417 C 174.476 41.958,174.235 41.433,174.151 41.250 C 173.334 39.462,173.554 35.875,174.613 33.711 C 175.218 32.475,177.209 30.333,177.753 30.333 C 177.889 30.333,178.000 30.271,178.000 30.195 C 178.000 30.074,179.618 29.490,180.583 29.262 C 181.387 29.072,183.942 29.332,184.917 29.703 M252.583 29.682 C 259.924 32.360,259.924 43.052,252.583 45.964 C 250.592 46.754,246.859 46.411,245.417 45.305 C 245.325 45.235,244.844 44.856,244.347 44.464 C 239.405 40.557,240.830 31.807,246.750 29.711 C 248.601 29.056,250.836 29.045,252.583 29.682 " stroke="none" fill="#fcfcfc" fill-rule="evenodd"></path><path id="path1" d="M12.500 14.064 L 12.500 19.128 12.875 19.215 C 13.081 19.264,14.188 19.541,15.333 19.831 C 17.807 20.458,21.241 21.074,23.667 21.325 C 24.629 21.425,25.791 21.548,26.248 21.598 L 27.079 21.689 20.726 15.344 L 14.373 9.000 13.436 9.000 L 12.500 9.000 12.500 14.064 M32.276 29.127 C 32.149 31.618,32.127 54.238,32.251 54.363 C 32.329 54.440,33.778 54.018,34.583 53.683 C 34.767 53.607,35.367 53.374,35.917 53.166 C 38.194 52.303,42.428 50.089,43.126 49.396 C 43.241 49.282,43.485 49.141,43.668 49.083 C 43.850 49.025,44.000 48.920,44.000 48.849 C 44.000 48.778,44.188 48.635,44.417 48.530 L 44.833 48.340 44.833 43.878 L 44.833 39.416 38.609 33.210 L 32.385 27.004 32.276 29.127 " stroke="none" fill="#247299" fill-rule="evenodd"></path><path id="path2" d="M380.000 19.730 L 380.000 28.294 379.369 27.689 C 375.998 24.455,370.594 23.768,366.137 26.007 C 358.402 29.893,357.400 42.865,364.417 48.279 C 369.123 51.911,377.372 51.190,380.022 46.917 L 380.332 46.417 380.333 48.208 L 380.333 50.000 383.333 50.000 L 386.333 50.000 386.333 30.583 L 386.333 11.167 383.167 11.167 L 380.000 11.167 380.000 19.730 M0.041 37.019 L 0.083 61.222 1.083 61.939 C 2.093 62.663,5.089 64.391,6.167 64.871 C 6.487 65.014,7.162 65.316,7.667 65.542 C 13.367 68.098,22.733 69.984,29.791 69.996 L 32.331 70.000 32.226 46.042 C 32.168 32.865,32.112 22.071,32.102 22.057 C 32.092 22.042,30.546 21.945,28.667 21.842 C 25.106 21.647,20.499 21.072,17.816 20.489 C 15.383 19.960,12.973 19.331,12.594 19.125 C 12.405 19.023,11.463 18.660,10.500 18.320 C 7.345 17.205,2.806 14.986,2.000 14.165 C 1.924 14.088,0.731 13.277,0.211 12.950 C 0.040 12.842,0.007 17.463,0.041 37.019 M264.167 13.744 C 264.167 13.787,264.274 14.143,264.405 14.536 C 264.536 14.929,264.757 15.662,264.896 16.167 C 265.036 16.671,265.307 17.608,265.500 18.250 C 265.693 18.892,265.962 19.829,266.098 20.333 C 266.234 20.837,266.415 21.400,266.500 21.583 C 266.585 21.767,266.762 22.329,266.894 22.833 C 267.123 23.706,268.350 27.947,268.992 30.083 C 270.457 34.955,272.443 41.675,273.155 44.167 C 273.414 45.072,274.464 48.678,274.771 49.712 C 274.851 49.983,275.113 50.004,277.968 49.962 L 281.079 49.917 281.366 48.917 C 281.524 48.367,281.813 47.392,282.007 46.750 C 282.202 46.108,282.540 44.983,282.758 44.250 C 282.976 43.517,283.315 42.392,283.512 41.750 C 283.708 41.108,284.005 40.133,284.173 39.583 C 284.341 39.033,284.638 38.058,284.833 37.417 C 285.029 36.775,285.336 35.762,285.517 35.167 C 285.824 34.151,286.010 33.546,286.845 30.833 C 287.028 30.238,287.357 29.150,287.576 28.417 C 287.794 27.683,288.135 26.558,288.334 25.917 C 288.533 25.275,288.817 24.319,288.966 23.792 C 289.256 22.767,289.413 22.607,289.541 23.208 C 289.584 23.415,290.013 24.858,290.494 26.417 C 290.974 27.975,291.502 29.700,291.667 30.250 C 291.832 30.800,292.239 32.150,292.572 33.250 C 292.905 34.350,293.368 35.887,293.600 36.667 C 293.831 37.446,294.087 38.271,294.167 38.500 C 294.247 38.729,294.510 39.592,294.750 40.417 C 294.991 41.242,295.288 42.217,295.410 42.583 C 295.531 42.950,295.832 43.925,296.077 44.750 C 296.322 45.575,296.621 46.550,296.743 46.917 C 296.864 47.283,297.131 48.129,297.337 48.795 L 297.711 50.007 300.886 49.962 L 304.062 49.917 304.270 49.167 C 304.815 47.204,305.657 44.280,306.504 41.417 C 306.884 40.133,307.344 38.521,307.528 37.833 C 307.711 37.146,307.927 36.433,308.008 36.250 C 308.088 36.067,308.275 35.467,308.422 34.917 C 308.826 33.405,309.250 31.913,309.749 30.250 C 309.997 29.425,310.448 27.887,310.753 26.833 C 311.058 25.779,311.657 23.717,312.085 22.250 C 312.513 20.783,312.999 19.096,313.165 18.500 C 313.330 17.904,313.671 16.742,313.921 15.917 C 314.171 15.092,314.413 14.246,314.458 14.038 L 314.540 13.660 311.156 13.705 L 307.771 13.750 307.461 14.917 C 306.807 17.371,306.509 18.468,306.079 20.000 C 305.636 21.577,305.486 22.125,304.851 24.500 C 304.667 25.188,304.361 26.313,304.170 27.000 C 303.739 28.552,303.038 31.144,302.750 32.250 C 302.631 32.708,302.333 33.796,302.088 34.667 C 301.843 35.537,301.537 36.662,301.408 37.167 C 301.279 37.671,301.074 38.406,300.953 38.800 L 300.733 39.517 300.349 38.300 C 300.139 37.631,299.832 36.671,299.668 36.167 C 299.505 35.662,299.316 34.987,299.249 34.667 C 299.183 34.346,299.072 34.008,299.003 33.917 C 298.934 33.825,298.782 33.337,298.667 32.833 C 298.551 32.329,298.400 31.842,298.331 31.750 C 298.262 31.658,298.151 31.321,298.084 31.000 C 298.017 30.679,297.827 30.004,297.661 29.500 C 297.495 28.996,297.123 27.796,296.835 26.833 C 296.547 25.871,296.247 24.896,296.169 24.667 C 296.003 24.183,295.554 22.712,294.923 20.583 C 294.678 19.758,294.376 18.783,294.252 18.417 C 294.127 18.050,293.826 17.075,293.582 16.250 C 293.338 15.425,293.063 14.505,292.972 14.205 L 292.805 13.660 289.541 13.705 L 286.276 13.750 285.790 15.333 C 285.522 16.204,285.242 17.067,285.166 17.250 C 285.091 17.433,284.831 18.258,284.588 19.083 C 284.345 19.908,283.896 21.371,283.592 22.333 C 283.287 23.296,282.761 24.983,282.422 26.083 C 282.084 27.183,281.707 28.383,281.585 28.750 C 281.463 29.117,281.215 29.904,281.033 30.500 C 280.850 31.096,280.360 32.671,279.943 34.000 C 279.525 35.329,278.966 37.129,278.700 38.000 C 278.357 39.126,278.186 39.487,278.111 39.250 C 278.053 39.067,277.737 37.867,277.408 36.583 C 276.652 33.633,276.371 32.552,275.501 29.250 C 274.351 24.884,274.157 24.143,273.828 22.833 C 273.655 22.146,273.365 21.021,273.183 20.333 C 272.260 16.845,271.952 15.661,271.723 14.708 L 271.473 13.667 267.820 13.667 C 265.811 13.667,264.167 13.702,264.167 13.744 M323.750 24.849 C 312.639 26.002,308.315 40.450,316.928 47.646 C 318.502 48.961,319.937 49.635,322.667 50.341 C 325.753 51.139,330.683 50.328,333.440 48.570 C 341.600 43.363,341.114 30.736,332.582 26.312 C 329.906 24.925,327.256 24.486,323.750 24.849 M355.333 24.854 C 354.368 24.999,352.808 25.607,352.193 26.079 C 351.535 26.583,350.669 27.503,350.238 28.155 L 349.750 28.894 349.703 27.114 L 349.655 25.333 346.494 25.333 L 343.333 25.333 343.333 37.667 L 343.333 50.000 346.490 50.000 L 349.647 50.000 349.699 42.708 L 349.750 35.417 350.297 34.305 C 351.700 31.456,354.671 30.136,357.917 30.920 C 358.467 31.053,359.010 31.163,359.125 31.164 C 359.284 31.166,359.333 30.444,359.333 28.104 L 359.333 25.042 358.875 24.950 C 357.829 24.742,356.350 24.701,355.333 24.854 M328.985 31.149 C 335.694 34.600,333.333 44.897,325.833 44.897 C 320.834 44.897,317.523 40.093,319.154 35.205 C 320.471 31.259,325.314 29.261,328.985 31.149 M375.450 30.831 C 379.496 32.253,381.338 36.982,379.422 41.027 C 378.661 42.632,377.439 43.662,375.031 44.730 C 372.513 45.847,368.175 43.894,366.807 41.028 C 363.979 35.102,369.402 28.705,375.450 30.831 M388.833 43.500 C 388.833 43.944,388.889 44.000,389.333 44.000 L 389.833 44.000 389.833 45.667 L 389.833 47.333 390.417 47.333 L 391.000 47.333 391.000 45.667 L 391.000 44.000 391.583 44.000 C 392.120 44.000,392.167 43.960,392.167 43.500 L 392.167 43.000 390.500 43.000 L 388.833 43.000 388.833 43.500 M392.610 44.617 C 392.429 47.352,392.426 47.333,392.981 47.333 C 393.533 47.333,393.649 47.070,393.684 45.750 C 393.696 45.292,393.738 45.067,393.779 45.250 C 394.342 47.814,395.041 48.140,395.656 46.125 C 395.859 45.460,396.051 44.842,396.083 44.750 C 396.114 44.658,396.146 45.083,396.154 45.695 C 396.171 47.140,396.256 47.333,396.875 47.333 L 397.382 47.333 397.275 46.208 C 397.217 45.590,397.169 44.615,397.168 44.042 L 397.167 43.000 396.433 43.000 L 395.700 43.000 395.314 44.242 C 395.102 44.925,394.905 45.461,394.877 45.433 C 394.849 45.404,394.693 44.864,394.531 44.232 L 394.237 43.083 393.477 43.034 L 392.718 42.984 392.610 44.617 " stroke="none" fill="#04b4f4" fill-rule="evenodd"></path><path id="path3" d="M43.452 0.820 C 42.249 1.697,39.182 3.471,38.083 3.925 C 37.717 4.077,37.102 4.343,36.717 4.517 C 36.333 4.691,35.958 4.834,35.884 4.834 C 35.810 4.835,35.563 4.932,35.333 5.050 C 34.835 5.306,33.431 5.801,31.500 6.400 C 30.721 6.642,29.984 6.903,29.862 6.980 C 29.702 7.081,31.718 9.195,37.092 14.565 C 41.191 18.661,44.591 21.965,44.647 21.908 C 44.801 21.755,44.862 0.000,44.708 0.000 C 44.636 0.000,44.070 0.369,43.452 0.820 M30.460 21.951 C 30.668 21.991,30.968 21.990,31.127 21.948 C 31.286 21.906,31.117 21.874,30.750 21.875 C 30.383 21.877,30.253 21.911,30.460 21.951 M390.750 39.971 C 384.886 42.845,387.287 51.551,393.777 50.945 C 399.488 50.411,400.902 42.822,395.813 40.014 C 394.594 39.341,392.079 39.320,390.750 39.971 M395.172 40.829 C 398.223 42.357,398.949 46.072,396.682 48.557 C 394.694 50.735,390.844 50.397,389.191 47.900 C 386.536 43.892,390.925 38.702,395.172 40.829 " stroke="none" fill="#4ba4d2" fill-rule="evenodd"></path><path id="path4" d="M29.459 6.930 C 29.406 6.983,29.187 7.056,28.973 7.093 C 28.759 7.129,27.646 7.349,26.500 7.581 C 24.046 8.078,19.034 8.752,16.352 8.946 L 14.454 9.083 20.822 15.444 L 27.190 21.805 29.678 21.856 L 32.167 21.907 32.201 25.912 C 32.220 28.115,32.260 29.253,32.291 28.441 L 32.347 26.966 38.514 33.108 C 41.905 36.486,44.715 39.281,44.757 39.319 C 44.799 39.358,44.825 35.345,44.814 30.403 C 44.803 25.460,44.760 21.548,44.718 21.708 C 44.677 21.869,44.618 22.000,44.588 22.000 C 44.296 22.000,29.682 7.093,29.862 6.979 C 30.036 6.868,30.027 6.838,29.819 6.836 C 29.674 6.834,29.512 6.877,29.459 6.930 M25.292 21.618 C 25.498 21.657,25.835 21.657,26.042 21.618 C 26.248 21.578,26.079 21.545,25.667 21.545 C 25.254 21.545,25.085 21.578,25.292 21.618 " stroke="none" fill="#3284ab" fill-rule="evenodd"></path></g></svg>